<svg width="110" height="37" viewBox="0 0 110 37" fill="none" xmlns="http://www.w3.org/2000/svg">
<g clip-path="url(#clip0_2896_2868)">
<path d="M28.449 0.673828C28.4059 0.673828 28.3627 0.673828 28.3196 0.673828C27.615 0.688207 26.8673 0.856442 26.1052 1.13827C24.5739 1.70049 22.9131 2.7437 21.2235 4.21468C20.8928 4.50298 20.5549 4.81213 20.217 5.13566C19.9941 4.91997 19.7712 4.71866 19.5484 4.51736C17.7582 2.92991 15.9967 1.81337 14.3863 1.21161C13.581 0.911083 12.7974 0.730625 12.0641 0.713371C11.3307 0.695397 10.6477 0.839188 10.051 1.18716C8.88628 1.85795 8.2536 3.17938 7.98039 4.78337C7.7 6.3967 7.7719 8.35226 8.20327 10.5523C8.28954 10.9908 8.3902 11.4366 8.50523 11.8967C7.98758 12.0405 7.48431 12.1987 7.0098 12.364C4.91549 13.0902 3.22163 14.0104 2.00516 15.0457C0.788693 16.0882 0 17.2961 0 18.6117C0 19.9706 0.828954 21.2287 2.11085 22.3215C3.39275 23.4215 5.1815 24.3993 7.39085 25.147C7.74314 25.2693 8.10261 25.3843 8.47647 25.4921C8.35425 25.981 8.24641 26.4627 8.16013 26.93C7.75033 29.1085 7.7 31.0353 7.98758 32.6098C8.28235 34.1843 8.9366 35.4712 10.0797 36.1255C11.2516 36.8085 12.7542 36.715 14.3503 36.1542C15.9392 35.5934 17.6719 34.5294 19.4261 32.9908C19.7065 32.7464 19.9869 32.4876 20.2673 32.2144C20.634 32.5666 21.0007 32.9045 21.3673 33.2137C23.0425 34.6588 24.6817 35.6653 26.1915 36.1974C27.7013 36.7294 29.1464 36.8085 30.2824 36.147C31.4614 35.464 32.1301 34.1196 32.4392 32.4588C32.7484 30.798 32.6909 28.7634 32.2379 26.4771C32.166 26.1248 32.0869 25.7581 32.0007 25.3987C32.2523 25.3196 32.5039 25.2405 32.7484 25.1614C35.0203 24.4137 36.868 23.4503 38.198 22.3575C39.5281 21.2647 40.3909 19.9993 40.3909 18.6117C40.3909 17.2745 39.5641 16.0666 38.3131 15.017C37.0621 13.9745 35.3294 13.0542 33.2085 12.3281C32.7915 12.1843 32.3601 12.0477 31.9144 11.9183C31.9863 11.6235 32.0582 11.3287 32.1157 11.034C32.5974 8.69017 32.6837 6.6052 32.4033 4.90631C32.1157 3.20814 31.4542 1.82775 30.2536 1.13468C29.7144 0.821214 29.0961 0.678861 28.449 0.673828ZM28.3268 2.4101C28.7797 2.3986 29.1392 2.482 29.3909 2.62938C29.9373 2.94213 30.4621 3.78331 30.6993 5.1867C30.9366 6.59801 30.8719 8.49605 30.419 10.6817C30.3614 10.9477 30.3039 11.2137 30.2392 11.4869C28.5712 11.0987 26.7523 10.8111 24.8399 10.6313C23.7399 9.06402 22.5895 7.62612 21.4248 6.36795C21.7412 6.07102 22.0431 5.78344 22.3523 5.51742C23.9268 4.15069 25.4438 3.21965 26.702 2.75808C27.3275 2.52729 27.8739 2.42161 28.3268 2.4101ZM11.8771 2.44965C11.9275 2.44965 11.9922 2.44965 12.0497 2.44965C12.5314 2.46331 13.1137 2.57906 13.7824 2.82782C15.1196 3.32677 16.7373 4.33043 18.398 5.81148C18.5993 5.99121 18.8007 6.17814 19.002 6.37514C17.8373 7.62612 16.6797 9.05683 15.5654 10.6242C13.6601 10.8039 11.8412 11.0915 10.1804 11.4653C10.0725 11.0411 9.97909 10.6242 9.9 10.2215C9.49739 8.17971 9.45425 6.3967 9.67713 5.07814C9.90719 3.7603 10.4033 2.97664 10.9137 2.68043C11.151 2.54311 11.4745 2.45899 11.8771 2.44893V2.44965ZM20.217 7.61174C21.015 8.46729 21.8059 9.43069 22.5895 10.4732C21.8059 10.4372 21.0007 10.4157 20.1954 10.4157C19.3974 10.4157 18.6065 10.4372 17.8229 10.4732C18.6137 9.43069 19.419 8.47448 20.217 7.61174ZM52.8575 9.32285V25.8013H54.9137V19.2516H58.1993L62.398 25.8013H64.8209L60.3706 19.0791C62.6209 18.8778 64.6484 17.2529 64.6484 14.2836C64.6484 11.2496 62.4987 9.32285 59.4791 9.32285H52.8575ZM105.111 10.6026V13.8666H103.17V15.4987H105.111V23.3065C105.111 25.0823 106.046 26.0961 107.771 26.0961C108.85 26.0961 109.569 25.7725 110 25.3268L109.425 23.9464C109.209 24.2196 108.706 24.4425 108.203 24.4425C107.412 24.4425 106.98 23.7954 106.98 22.9111V15.4987H109.425V13.8666H106.98V10.6026H105.111ZM54.9137 11.149H59.2346C61.183 11.149 62.5203 12.4359 62.5203 14.2836C62.5203 16.1385 61.183 17.447 59.2346 17.447H54.9137V11.149ZM20.1954 12.1411C21.4536 12.1411 22.683 12.1915 23.8765 12.2777C24.5523 13.2699 25.2065 14.3124 25.832 15.3908C26.4575 16.4693 27.0399 17.5549 27.5647 18.6261C27.0399 19.7117 26.4647 20.8117 25.832 21.8974C25.2065 22.983 24.5595 24.0255 23.8908 25.0248C22.6902 25.1111 21.4536 25.1542 20.1954 25.1542C18.9516 25.1542 17.7294 25.1111 16.5359 25.0392C15.8601 24.0398 15.1987 22.9974 14.566 21.9117C13.9333 20.8261 13.3582 19.7333 12.8405 18.6549C13.3582 17.5693 13.9333 16.4836 14.5588 15.398C15.1843 14.3124 15.8458 13.2699 16.5216 12.2777C17.715 12.1915 18.9444 12.1411 20.1954 12.1411ZM14.3 12.5006C13.8758 13.1621 13.466 13.8379 13.0634 14.5353C12.6608 15.2327 12.2869 15.93 11.9275 16.6202C11.417 15.4268 10.9928 14.2549 10.6405 13.1333C11.7909 12.8745 13.0131 12.666 14.3 12.5006ZM26.0909 12.5078C27.385 12.666 28.6216 12.8889 29.7719 13.1477C29.4268 14.2693 28.9882 15.434 28.4778 16.6274C28.1111 15.93 27.7229 15.2255 27.3203 14.5281C26.9176 13.8379 26.5078 13.1621 26.0909 12.5078ZM8.96536 13.5575C9.46863 15.1895 10.1301 16.9078 10.9353 18.6549C10.1157 20.4307 9.44706 22.1706 8.9366 23.8242C8.59869 23.7307 8.26797 23.6228 7.94444 23.515C5.90261 22.8176 4.29072 21.9189 3.23314 21.013C2.17484 20.1072 1.72549 19.23 1.72549 18.6117C1.72549 18.015 2.13601 17.2098 3.12673 16.3614C4.11673 15.513 5.6366 14.6647 7.57778 13.9889C8.01634 13.8379 8.48366 13.6941 8.96536 13.5575ZM71.9673 13.5719C68.5523 13.5719 66.0791 16.3614 66.0791 19.8196C66.0791 23.551 68.6242 26.0961 72.1111 26.0961C74.0523 26.0961 75.7059 25.4562 76.8562 24.2699L75.9935 23.0549C75.0588 24.0183 73.6928 24.5647 72.3268 24.5647C69.7601 24.5647 68.1784 22.6882 68.0346 20.4379H77.6471V19.9706C77.6471 16.383 75.5621 13.5719 71.9673 13.5719ZM84.7647 13.5719C82.8235 13.5719 81.3137 14.2117 80.0196 15.549L80.8824 16.8287C81.9608 15.6928 83.1111 15.1751 84.549 15.1751C86.2745 15.1751 87.5686 16.0882 87.5686 17.6987V19.8483C86.5621 18.734 85.1961 18.2163 83.6144 18.2163C81.6013 18.2163 79.4444 19.4745 79.4444 22.1418C79.4444 24.7372 81.6013 26.0961 83.6144 26.0961C85.1961 26.0961 86.5621 25.5281 87.5686 24.4425V25.8013H89.366V17.598C89.366 14.7078 87.281 13.5719 84.7647 13.5719ZM97.9935 13.5719C94.4706 13.5719 92.0261 16.2895 92.0261 19.8196C92.0261 23.3784 94.4706 26.0961 97.9935 26.0961C100.15 26.0961 101.444 25.2045 102.379 24.0183L101.157 22.8823C100.366 23.9464 99.3595 24.4425 98.1373 24.4425C95.549 24.4425 93.9673 22.4653 93.9673 19.8196C93.9673 17.1738 95.549 15.2255 98.1373 15.2255C99.3595 15.2255 100.366 15.6928 101.157 16.7784L102.379 15.6425C101.444 14.4562 100.15 13.5719 97.9935 13.5719ZM31.4542 13.5791C31.8641 13.7013 32.2667 13.8307 32.6477 13.9601C34.6176 14.6359 36.185 15.4843 37.2131 16.347C38.234 17.2026 38.6654 18.0222 38.6654 18.6117C38.6654 19.2372 38.2052 20.1144 37.1052 21.0202C35.998 21.9261 34.3229 22.8248 32.2092 23.5294C31.9863 23.6013 31.7634 23.6732 31.5333 23.7379C31.0157 22.0987 30.3183 20.3732 29.4843 18.6261C30.2895 16.9006 30.951 15.2039 31.4542 13.5791ZM20.1954 15.0098C19.2405 15.0111 18.3251 15.391 17.6499 16.0662C16.9747 16.7414 16.5948 17.6568 16.5935 18.6117C16.5929 19.5679 16.972 20.4851 17.6474 21.1619C18.3228 21.8386 19.2393 22.2196 20.1954 22.2209C20.6695 22.2212 21.1389 22.128 21.5769 21.9467C22.0149 21.7655 22.4129 21.4996 22.7481 21.1644C23.0833 20.8292 23.3491 20.4312 23.5304 19.9932C23.7117 19.5552 23.8049 19.0858 23.8046 18.6117C23.8032 17.6556 23.4223 16.7391 22.7456 16.0637C22.0688 15.3883 21.1516 15.0092 20.1954 15.0098ZM71.8954 15.1032C74.6275 15.1032 75.7778 17.3032 75.8497 19.0791H68.0346C68.1281 17.2529 69.3935 15.1032 71.8954 15.1032ZM84.2614 19.5464C85.5556 19.5464 86.8497 20.0425 87.5686 21.0274V23.2778C86.8497 24.2699 85.5556 24.7588 84.2614 24.7588C82.536 24.7588 81.3137 23.6732 81.3137 22.1706C81.3137 20.632 82.536 19.5464 84.2614 19.5464ZM28.4993 20.6248C29.0314 21.847 29.4915 23.0405 29.851 24.1764C28.6791 24.4425 27.4137 24.6581 26.0909 24.8163C26.5078 24.1477 26.9248 23.4575 27.3275 22.7601C27.7373 22.0483 28.1255 21.3366 28.4993 20.6248ZM11.9275 20.6823C12.2869 21.3797 12.668 22.0771 13.0706 22.7745C13.4804 23.4791 13.9046 24.1693 14.3359 24.8451C13.0275 24.7013 11.7765 24.5 10.619 24.2483C10.9712 23.1052 11.4098 21.9117 11.9275 20.6823ZM30.3255 25.8372C30.4118 26.1679 30.4837 26.4987 30.5484 26.815C30.9654 28.9287 30.9941 30.7764 30.7425 32.1425C30.4909 33.5157 29.9516 34.3425 29.4196 34.6516C28.902 34.9536 27.9961 35.0039 26.7667 34.5725C25.5373 34.134 24.0418 33.2425 22.4889 31.9052C22.151 31.6176 21.8131 31.3085 21.4752 30.9778C22.6327 29.7124 23.7686 28.2601 24.8614 26.6784C26.8026 26.5059 28.6431 26.2255 30.3255 25.8372ZM10.1516 25.9163C11.834 26.2902 13.6673 26.549 15.5941 26.7C16.7157 28.2817 17.8876 29.7268 19.0595 30.9849C18.8007 31.2366 18.549 31.4738 18.2902 31.6967C16.6725 33.113 15.0837 34.0621 13.7752 34.5222C12.4595 34.9895 11.4745 34.9392 10.9425 34.63C10.4248 34.3353 9.92876 33.5732 9.68431 32.2934C9.44706 31.0137 9.47582 29.2738 9.85686 27.2536C9.93595 26.8222 10.0366 26.3764 10.1516 25.9163ZM22.6327 26.8222C21.849 27.8862 21.0582 28.864 20.2673 29.7411C19.4549 28.864 18.6353 27.8862 17.8373 26.8366C18.6137 26.8653 19.3974 26.8797 20.1954 26.8797C21.015 26.8797 21.8275 26.8581 22.6327 26.8222Z" fill="#0B0C0D"/>
</g>
<defs>
<clipPath id="clip0_2896_2868">
<rect width="110" height="36.6667" fill="white" transform="translate(0 0.119141)"/>
</clipPath>
</defs>
</svg>
