<svg width="100" height="21" viewBox="0 0 100 21" fill="none" xmlns="http://www.w3.org/2000/svg">
<g clip-path="url(#clip0_2946_9511)">
<path d="M66.4769 0.320312H83.8952V3.53527H76.9855V20.4487H73.5304V3.53527H66.4769V0.320312Z" fill="#0B0C0D"/>
<path d="M37.8305 0.320312V3.53527H23.8686V8.70715H35.0967V11.9221H23.8686V17.2338H37.8305V20.4487H20.4137V3.53527H20.4123V0.320312H37.8305Z" fill="#0B0C0D"/>
<path d="M46.5279 0.328125H42.0066L58.201 20.4565H62.7355L54.6373 10.3993L62.7226 0.343482L58.201 0.350469L52.3736 7.58791L46.5279 0.328125Z" fill="#0B0C0D"/>
<path d="M51.1675 14.7058L48.9033 11.8906L41.9937 20.4718H46.5279L51.1675 14.7058Z" fill="#0B0C0D"/>
<path fill-rule="evenodd" clip-rule="evenodd" d="M20.5348 20.4483L4.31855 0.311523H0V20.4399H3.45485V4.61396L16.1946 20.4483H20.5348Z" fill="#0B0C0D"/>
<path d="M84.6718 20.3259C84.4188 20.3259 84.2036 20.2382 84.0234 20.0629C83.8431 19.8876 83.7541 19.6754 83.7563 19.424C83.7541 19.1794 83.8431 18.9695 84.0234 18.7942C84.2036 18.6189 84.4188 18.5312 84.6718 18.5312C84.9152 18.5312 85.1282 18.6189 85.3084 18.7942C85.4911 18.9695 85.5822 19.1794 85.5848 19.424C85.5822 19.59 85.5401 19.7423 85.4558 19.8784C85.3693 20.0168 85.2594 20.1252 85.1211 20.2036C84.9853 20.2844 84.8355 20.3259 84.6718 20.3259Z" fill="#0B0C0D"/>
<path d="M90.5685 11.8457H92.0995V17.744C92.0972 18.2861 91.9799 18.7497 91.7508 19.1396C91.519 19.5294 91.1982 19.8269 90.7863 20.0369C90.3767 20.2445 89.8967 20.3506 89.3513 20.3506C88.8525 20.3506 88.4056 20.2606 88.0076 20.0853C87.6096 19.91 87.2937 19.647 87.0619 19.301C86.8277 18.955 86.7129 18.5237 86.7129 18.007H88.2465C88.2487 18.233 88.3003 18.4291 88.3985 18.5929C88.4967 18.7566 88.6325 18.8812 88.8058 18.9689C88.9812 19.0565 89.1827 19.1003 89.4096 19.1003C89.6556 19.1003 89.8662 19.0496 90.0371 18.9458C90.2079 18.8443 90.3391 18.692 90.4305 18.4891C90.5193 18.2884 90.5662 18.0393 90.5685 17.744V11.8457Z" fill="#0B0C0D"/>
<path d="M98.3987 14.1522C98.3614 13.7946 98.1975 13.5155 97.9119 13.3171C97.6239 13.1165 97.2518 13.0173 96.7952 13.0173C96.4746 13.0173 96.1985 13.0657 95.969 13.1603C95.7396 13.2572 95.5617 13.3863 95.4398 13.5501C95.3183 13.7139 95.2574 13.9007 95.2525 14.1107C95.2525 14.286 95.2947 14.4382 95.3767 14.5651C95.4586 14.6942 95.5685 14.8027 95.7114 14.8903C95.8518 14.9803 96.0086 15.0541 96.1797 15.1141C96.3528 15.174 96.5261 15.2248 96.6992 15.2663L97.4975 15.4624C97.8183 15.5362 98.1297 15.6354 98.4269 15.7623C98.7241 15.8868 98.9934 16.046 99.2297 16.2374C99.4662 16.4289 99.6536 16.6596 99.7916 16.9295C99.9297 17.1994 100 17.5154 100 17.8798C100 18.3712 99.8736 18.8025 99.6183 19.1762C99.3632 19.5476 98.9957 19.8382 98.5135 20.0482C98.0335 20.2558 97.453 20.3619 96.7695 20.3619C96.1094 20.3619 95.5335 20.2604 95.049 20.0574C94.5622 19.8567 94.1827 19.5614 93.9089 19.1739C93.635 18.7864 93.4876 18.3135 93.4665 17.7576H94.9835C95.0046 18.0482 95.0982 18.2904 95.2574 18.4865C95.4188 18.6803 95.6294 18.8233 95.8871 18.9202C96.147 19.0147 96.4371 19.0632 96.7579 19.0632C97.0926 19.0632 97.3876 19.0124 97.6426 18.9132C97.8954 18.814 98.0944 18.6757 98.2373 18.4957C98.3825 18.3181 98.4551 18.1082 98.4574 17.8683C98.4551 17.6492 98.3893 17.4669 98.2629 17.3239C98.1343 17.1809 97.9564 17.061 97.7292 16.9641C97.5 16.8672 97.233 16.7795 96.9287 16.7034L95.9596 16.4589C95.2596 16.2813 94.7048 16.0114 94.2997 15.6492C93.8926 15.2871 93.6911 14.8073 93.6911 14.2052C93.6911 13.7116 93.8269 13.278 94.101 12.9066C94.3723 12.5352 94.7447 12.2468 95.2152 12.0415C95.6881 11.8339 96.2218 11.7324 96.8162 11.7324C97.4203 11.7324 97.9492 11.8339 98.4058 12.0415C98.8622 12.2468 99.2206 12.5329 99.4802 12.8973C99.7401 13.2618 99.8759 13.6793 99.883 14.1522H98.3987Z" fill="#0B0C0D"/>
</g>
<defs>
<clipPath id="clip0_2946_9511">
<rect width="100" height="20.0508" fill="white" transform="translate(0 0.311523)"/>
</clipPath>
</defs>
</svg>
